<svg width="44" height="44" viewBox="0 0 44 44" fill="none" xmlns="http://www.w3.org/2000/svg">
<path d="M33.8456 13.5856L36 11.4643V11H28.5367L23.2177 24.6261L17.1664 11H9.34087V11.4643L11.8575 14.5825C12.1028 14.8129 12.231 15.1499 12.1984 15.4892V27.7432C12.276 28.1843 12.1365 28.6382 11.835 28.9589L9 32.4952V32.9537H17.0381V32.4894L14.2031 28.9589C13.896 28.6371 13.7509 28.1913 13.8127 27.7432V17.1438L20.8688 32.9595H21.6889L27.756 17.1438V29.7428C27.756 30.0752 27.756 30.1435 27.5445 30.3612L25.362 32.5345V33H35.9505V32.5357L33.8468 30.4156C33.6623 30.272 33.5666 30.0312 33.606 29.7973V14.2039C33.5666 13.9688 33.6611 13.728 33.8456 13.5856Z" fill="white" fill-opacity="0.87"/>
<rect x="0.5" y="0.5" width="43" height="43" rx="7.5" stroke="white" stroke-opacity="0.87"/>
</svg>
