<svg width="44" height="44" viewBox="0 0 44 44" fill="none" xmlns="http://www.w3.org/2000/svg">
<mask id="path-1-inside-1" fill="white">
<path fill-rule="evenodd" clip-rule="evenodd" d="M8 0C3.58172 0 0 3.58172 0 8V36C0 40.4183 3.58172 44 8 44H36C40.4183 44 44 40.4183 44 36V8C44 3.58172 40.4183 0 36 0H8ZM36 11.4643L33.8456 13.5856C33.6611 13.728 33.5666 13.9688 33.606 14.2039V29.7973C33.5666 30.0312 33.6623 30.272 33.8468 30.4156L35.9505 32.5357V33H25.362V32.5345L27.5445 30.3612C27.756 30.1435 27.756 30.0752 27.756 29.7428V17.1438L21.6889 32.9595H20.8687L13.8127 17.1438V27.7432C13.7509 28.1913 13.896 28.6371 14.2031 28.9589L17.0381 32.4894V32.9537H9V32.4952L11.835 28.9589C12.1365 28.6382 12.276 28.1843 12.1984 27.7432V15.4892C12.231 15.1499 12.1027 14.8129 11.8575 14.5825L9.34087 11.4643V11H17.1664L23.2177 24.6261L28.5367 11H36V11.4643Z"/>
</mask>
<path fill-rule="evenodd" clip-rule="evenodd" d="M8 0C3.58172 0 0 3.58172 0 8V36C0 40.4183 3.58172 44 8 44H36C40.4183 44 44 40.4183 44 36V8C44 3.58172 40.4183 0 36 0H8ZM36 11.4643L33.8456 13.5856C33.6611 13.728 33.5666 13.9688 33.606 14.2039V29.7973C33.5666 30.0312 33.6623 30.272 33.8468 30.4156L35.9505 32.5357V33H25.362V32.5345L27.5445 30.3612C27.756 30.1435 27.756 30.0752 27.756 29.7428V17.1438L21.6889 32.9595H20.8687L13.8127 17.1438V27.7432C13.7509 28.1913 13.896 28.6371 14.2031 28.9589L17.0381 32.4894V32.9537H9V32.4952L11.835 28.9589C12.1365 28.6382 12.276 28.1843 12.1984 27.7432V15.4892C12.231 15.1499 12.1027 14.8129 11.8575 14.5825L9.34087 11.4643V11H17.1664L23.2177 24.6261L28.5367 11H36V11.4643Z" fill="#F26760"/>
<path d="M33.8456 13.5856L34.4567 14.3772L34.5043 14.3404L34.5472 14.2981L33.8456 13.5856ZM36 11.4643L36.7016 12.1769L37 11.8831V11.4643H36ZM33.606 14.2039H34.606V14.1207L34.5923 14.0387L33.606 14.2039ZM33.606 29.7973L34.5921 29.9633L34.606 29.8808V29.7973H33.606ZM33.8468 30.4156L34.5566 29.7112L34.5115 29.6657L34.4609 29.6264L33.8468 30.4156ZM35.9505 32.5357H36.9505V32.1237L36.6603 31.8313L35.9505 32.5357ZM35.9505 33V34H36.9505V33H35.9505ZM25.362 33H24.362V34H25.362V33ZM25.362 32.5345L24.6564 31.8259L24.362 32.1191V32.5345H25.362ZM27.5445 30.3612L28.2501 31.0697L28.256 31.0639L28.2617 31.058L27.5445 30.3612ZM27.756 17.1438H28.756L26.8223 16.7856L27.756 17.1438ZM21.6889 32.9595V33.9595H22.3763L22.6225 33.3176L21.6889 32.9595ZM20.8687 32.9595L19.9555 33.3669L20.2199 33.9595H20.8687V32.9595ZM13.8127 17.1438L14.726 16.7364L12.8127 17.1438H13.8127ZM13.8127 27.7432L14.8034 27.8799L14.8127 27.8119V27.7432H13.8127ZM14.2031 28.9589L14.9828 28.3328L14.9561 28.2995L14.9266 28.2686L14.2031 28.9589ZM17.0381 32.4894H18.0381V32.1376L17.8178 31.8632L17.0381 32.4894ZM17.0381 32.9537V33.9537H18.0381V32.9537H17.0381ZM9 32.9537H8V33.9537H9V32.9537ZM9 32.4952L8.21978 31.8696L8 32.1438V32.4952H9ZM11.835 28.9589L11.1064 28.274L11.0794 28.3027L11.0548 28.3334L11.835 28.9589ZM12.1984 27.7432H11.1984V27.8305L11.2135 27.9165L12.1984 27.7432ZM12.1984 15.4892L11.203 15.3934L11.1984 15.4412V15.4892H12.1984ZM11.8575 14.5825L11.0793 15.2106L11.1226 15.2642L11.1728 15.3113L11.8575 14.5825ZM9.34087 11.4643H8.34087V11.8175L8.5627 12.0924L9.34087 11.4643ZM9.34087 11V10H8.34087V11H9.34087ZM17.1664 11L18.0803 10.5941L17.8165 10H17.1664V11ZM23.2177 24.6261L22.3038 25.032L23.2772 27.2238L24.1493 24.9897L23.2177 24.6261ZM28.5367 11V10H27.8536L27.6052 10.6364L28.5367 11ZM36 11H37V10H36V11ZM1 8C1 4.13401 4.13401 1 8 1V-1C3.02944 -1 -1 3.02944 -1 8H1ZM1 36V8H-1V36H1ZM8 43C4.13401 43 1 39.866 1 36H-1C-1 40.9706 3.02944 45 8 45V43ZM36 43H8V45H36V43ZM43 36C43 39.866 39.866 43 36 43V45C40.9706 45 45 40.9706 45 36H43ZM43 8V36H45V8H43ZM36 1C39.866 1 43 4.13401 43 8H45C45 3.02944 40.9706 -1 36 -1V1ZM8 1H36V-1H8V1ZM34.5472 14.2981L36.7016 12.1769L35.2984 10.7518L33.144 12.873L34.5472 14.2981ZM34.5923 14.0387C34.6131 14.163 34.5676 14.2916 34.4567 14.3772L33.2346 12.794C32.7547 13.1644 32.5202 13.7747 32.6197 14.3691L34.5923 14.0387ZM34.606 29.7973V14.2039H32.606V29.7973H34.606ZM34.4609 29.6264C34.5643 29.7069 34.6143 29.8318 34.5921 29.9633L32.6199 29.6313C32.519 30.2305 32.7602 30.8371 33.2326 31.2048L34.4609 29.6264ZM36.6603 31.8313L34.5566 29.7112L33.1369 31.1199L35.2407 33.24L36.6603 31.8313ZM36.9505 33V32.5357H34.9505V33H36.9505ZM25.362 34H35.9505V32H25.362V34ZM24.362 32.5345V33H26.362V32.5345H24.362ZM26.8389 29.6526L24.6564 31.8259L26.0676 33.2431L28.2501 31.0697L26.8389 29.6526ZM26.756 29.7428C26.756 29.786 26.756 29.8169 26.7557 29.8438C26.7553 29.8703 26.7548 29.884 26.7544 29.8907C26.7536 29.9045 26.7545 29.8634 26.7739 29.8006C26.7838 29.7684 26.7966 29.7368 26.8115 29.7071C26.8261 29.6781 26.84 29.6566 26.8493 29.6434C26.8581 29.631 26.8626 29.6261 26.8587 29.6307C26.8546 29.6354 26.8452 29.6458 26.8273 29.6643L28.2617 31.058C28.3899 30.926 28.5857 30.7127 28.6853 30.3894C28.7662 30.1265 28.756 29.8492 28.756 29.7428H26.756ZM26.756 17.1438V29.7428H28.756V17.1438H26.756ZM22.6225 33.3176L28.6897 17.502L26.8223 16.7856L20.7552 32.6013L22.6225 33.3176ZM20.8687 33.9595H21.6889V31.9595H20.8687V33.9595ZM12.8995 17.5512L19.9555 33.3669L21.782 32.552L14.726 16.7364L12.8995 17.5512ZM14.8127 27.7432V17.1438H12.8127V27.7432H14.8127ZM14.9266 28.2686C14.8306 28.1679 14.7831 28.0269 14.8034 27.8799L12.8221 27.6064C12.7187 28.3556 12.9614 29.1062 13.4796 29.6493L14.9266 28.2686ZM17.8178 31.8632L14.9828 28.3328L13.4234 29.5851L16.2584 33.1155L17.8178 31.8632ZM18.0381 32.9537V32.4894H16.0381V32.9537H18.0381ZM9 33.9537H17.0381V31.9537H9V33.9537ZM8 32.4952V32.9537H10V32.4952H8ZM11.0548 28.3334L8.21978 31.8696L9.78022 33.1207L12.6152 29.5845L11.0548 28.3334ZM11.2135 27.9165C11.2359 28.0437 11.1944 28.1804 11.1064 28.274L12.5636 29.6439C13.0786 29.096 13.3161 28.325 13.1832 27.5699L11.2135 27.9165ZM11.1984 15.4892V27.7432H13.1984V15.4892H11.1984ZM11.1728 15.3113C11.1816 15.3196 11.1905 15.332 11.1965 15.348C11.2025 15.3638 11.2043 15.3796 11.203 15.3934L13.1938 15.5849C13.2561 14.9369 13.0126 14.2957 12.5422 13.8537L11.1728 15.3113ZM8.5627 12.0924L11.0793 15.2106L12.6357 13.9545L10.1191 10.8363L8.5627 12.0924ZM8.34087 11V11.4643H10.3409V11H8.34087ZM17.1664 10H9.34087V12H17.1664V10ZM24.1317 24.2202L18.0803 10.5941L16.2524 11.4059L22.3038 25.032L24.1317 24.2202ZM27.6052 10.6364L22.2862 24.2625L24.1493 24.9897L29.4683 11.3636L27.6052 10.6364ZM36 10H28.5367V12H36V10ZM37 11.4643V11H35V11.4643H37Z" fill="#F26760" mask="url(#path-1-inside-1)"/>
</svg>
