<svg width="44" height="44" viewBox="0 0 44 44" fill="none" xmlns="http://www.w3.org/2000/svg">
<mask id="path-1-inside-1" fill="white">
<path fill-rule="evenodd" clip-rule="evenodd" d="M8 0C3.58172 0 0 3.58172 0 8V36C0 40.4183 3.58172 44 8 44H36C40.4183 44 44 40.4183 44 36V8C44 3.58172 40.4183 0 36 0H8ZM35.3366 34.3421V34.3432H29.8869V25.7806C29.8869 23.7401 29.8452 21.1233 27.0473 21.1233C24.2077 21.1233 23.7731 23.3405 23.7731 25.6335V34.3421H18.3178V16.7547H23.5568V19.1531H23.6337C24.3614 17.7711 26.1439 16.3135 28.8002 16.3135C34.3257 16.3135 35.3432 19.9543 35.3432 24.6807V34.3421H35.3366ZM9.43469 16.7559H14.8965V34.3433H9.43469V16.7559ZM9 11.1634C9 9.41705 10.417 8 12.1634 8C13.9086 8 15.3257 9.41705 15.3268 11.1634C15.3268 12.9097 13.9097 14.3564 12.1634 14.3564C10.417 14.3564 9 12.9097 9 11.1634Z"/>
</mask>
<path fill-rule="evenodd" clip-rule="evenodd" d="M8 0C3.58172 0 0 3.58172 0 8V36C0 40.4183 3.58172 44 8 44H36C40.4183 44 44 40.4183 44 36V8C44 3.58172 40.4183 0 36 0H8ZM35.3366 34.3421V34.3432H29.8869V25.7806C29.8869 23.7401 29.8452 21.1233 27.0473 21.1233C24.2077 21.1233 23.7731 23.3405 23.7731 25.6335V34.3421H18.3178V16.7547H23.5568V19.1531H23.6337C24.3614 17.7711 26.1439 16.3135 28.8002 16.3135C34.3257 16.3135 35.3432 19.9543 35.3432 24.6807V34.3421H35.3366ZM9.43469 16.7559H14.8965V34.3433H9.43469V16.7559ZM9 11.1634C9 9.41705 10.417 8 12.1634 8C13.9086 8 15.3257 9.41705 15.3268 11.1634C15.3268 12.9097 13.9097 14.3564 12.1634 14.3564C10.417 14.3564 9 12.9097 9 11.1634Z" fill="#F26760"/>
<path d="M35.3366 34.3432V35.3432H36.3366V34.3432H35.3366ZM35.3366 34.3421V33.3421H34.3366V34.3421H35.3366ZM29.8869 34.3432H28.8869V35.3432H29.8869V34.3432ZM23.7731 34.3421V35.3421H24.7731V34.3421H23.7731ZM18.3178 34.3421H17.3178V35.3421H18.3178V34.3421ZM18.3178 16.7547V15.7547H17.3178V16.7547H18.3178ZM23.5568 16.7547H24.5568V15.7547H23.5568V16.7547ZM23.5568 19.1531H22.5568V20.1531H23.5568V19.1531ZM23.6337 19.1531V20.1531H24.2372L24.5185 19.619L23.6337 19.1531ZM35.3432 34.3421V35.3421H36.3432V34.3421H35.3432ZM14.8965 16.7559H15.8965V15.7559H14.8965V16.7559ZM9.43469 16.7559V15.7559H8.43469V16.7559H9.43469ZM14.8965 34.3433V35.3433H15.8965V34.3433H14.8965ZM9.43469 34.3433H8.43469V35.3433H9.43469V34.3433ZM15.3268 11.1634L16.3268 11.1634L16.3268 11.1628L15.3268 11.1634ZM1 8C1 4.13401 4.13401 1 8 1V-1C3.02944 -1 -1 3.02944 -1 8H1ZM1 36V8H-1V36H1ZM8 43C4.13401 43 1 39.866 1 36H-1C-1 40.9706 3.02944 45 8 45V43ZM36 43H8V45H36V43ZM43 36C43 39.866 39.866 43 36 43V45C40.9706 45 45 40.9706 45 36H43ZM43 8V36H45V8H43ZM36 1C39.866 1 43 4.13401 43 8H45C45 3.02944 40.9706 -1 36 -1V1ZM8 1H36V-1H8V1ZM36.3366 34.3432V34.3421H34.3366V34.3432H36.3366ZM29.8869 35.3432H35.3366V33.3432H29.8869V35.3432ZM28.8869 25.7806V34.3432H30.8869V25.7806H28.8869ZM27.0473 22.1233C27.5872 22.1233 27.9031 22.2474 28.0992 22.3842C28.2974 22.5225 28.4594 22.7341 28.5866 23.055C28.8636 23.7545 28.8869 24.7167 28.8869 25.7806H30.8869C30.8869 24.8039 30.8893 23.4375 30.446 22.3185C30.213 21.7302 29.84 21.1601 29.2435 20.7439C28.6448 20.3263 27.9064 20.1233 27.0473 20.1233V22.1233ZM24.7731 25.6335C24.7731 24.5053 24.8894 23.6028 25.2211 23.0013C25.3739 22.7241 25.5672 22.5216 25.8222 22.3804C26.0829 22.236 26.4674 22.1233 27.0473 22.1233V20.1233C26.2074 20.1233 25.4727 20.2877 24.8533 20.6308C24.2281 20.977 23.7804 21.472 23.4696 22.0357C22.874 23.1161 22.7731 24.4687 22.7731 25.6335H24.7731ZM24.7731 34.3421V25.6335H22.7731V34.3421H24.7731ZM18.3178 35.3421H23.7731V33.3421H18.3178V35.3421ZM17.3178 16.7547V34.3421H19.3178V16.7547H17.3178ZM23.5568 15.7547H18.3178V17.7547H23.5568V15.7547ZM24.5568 19.1531V16.7547H22.5568V19.1531H24.5568ZM23.6337 18.1531H23.5568V20.1531H23.6337V18.1531ZM28.8002 15.3135C25.7561 15.3135 23.6416 16.9917 22.7488 18.6871L24.5185 19.619C25.0811 18.5505 26.5318 17.3135 28.8002 17.3135V15.3135ZM36.3432 24.6807C36.3432 22.2957 36.0976 19.9511 34.99 18.1919C33.8157 16.3267 31.8098 15.3135 28.8002 15.3135V17.3135C31.3161 17.3135 32.5818 18.1207 33.2975 19.2575C34.0801 20.5004 34.3432 22.3393 34.3432 24.6807H36.3432ZM36.3432 34.3421V24.6807H34.3432V34.3421H36.3432ZM35.3366 35.3421H35.3432V33.3421H35.3366V35.3421ZM14.8965 15.7559H9.43469V17.7559H14.8965V15.7559ZM15.8965 34.3433V16.7559H13.8965V34.3433H15.8965ZM9.43469 35.3433H14.8965V33.3433H9.43469V35.3433ZM8.43469 16.7559V34.3433H10.4347V16.7559H8.43469ZM12.1634 7C9.86476 7 8 8.86476 8 11.1634H10C10 9.96933 10.9693 9 12.1634 9V7ZM16.3268 11.1628C16.3253 8.86497 14.4613 7 12.1634 7V9C13.356 9 14.326 9.96912 14.3268 11.164L16.3268 11.1628ZM12.1634 15.3564C14.4741 15.3564 16.3268 13.4498 16.3268 11.1634H14.3268C14.3268 12.3696 13.3454 13.3564 12.1634 13.3564V15.3564ZM8 11.1634C8 13.4498 9.85268 15.3564 12.1634 15.3564V13.3564C10.9814 13.3564 10 12.3696 10 11.1634H8Z" fill="#F26760" mask="url(#path-1-inside-1)"/>
</svg>
