<svg width="44" height="44" viewBox="0 0 44 44" fill="none" xmlns="http://www.w3.org/2000/svg">
<path d="M35.3366 34.3432V34.3421H35.3432V24.6807C35.3432 19.9543 34.3257 16.3135 28.8002 16.3135C26.1439 16.3135 24.3614 17.7711 23.6337 19.1531H23.5568V16.7547H18.3178V34.3421H23.7731V25.6335C23.7731 23.3405 24.2077 21.1233 27.0473 21.1233C29.8452 21.1233 29.8869 23.7401 29.8869 25.7806V34.3432H35.3366Z" fill="white" fill-opacity="0.87"/>
<path d="M9.43469 16.7559H14.8965V34.3433H9.43469V16.7559Z" fill="white" fill-opacity="0.87"/>
<path d="M12.1634 8C10.417 8 9 9.41705 9 11.1634C9 12.9097 10.417 14.3564 12.1634 14.3564C13.9097 14.3564 15.3268 12.9097 15.3268 11.1634C15.3257 9.41705 13.9086 8 12.1634 8V8Z" fill="white" fill-opacity="0.87"/>
<rect x="0.5" y="0.5" width="43" height="43" rx="7.5" stroke="white" stroke-opacity="0.87"/>
</svg>
