<?xml version="1.0" encoding="UTF-8"?>
<svg width="44px" height="44px" viewBox="0 0 44 44" version="1.1" xmlns="http://www.w3.org/2000/svg" xmlns:xlink="http://www.w3.org/1999/xlink">
    <!-- Generator: Sketch 64 (93537) - https://sketch.com -->
    <title>Combined Shape</title>
    <desc>Created with Sketch.</desc>
    <g id="Page-1" stroke="none" stroke-width="1" fill="none" fill-rule="evenodd">
        <g id="Artboard" transform="translate(-45.000000, -91.000000)" fill="#F26761">
            <path d="M81.5,91 C85.6421356,91 89,94.3578644 89,98.5 L89,127.5 C89,131.642136 85.6421356,135 81.5,135 L52.5,135 C48.3578644,135 45,131.642136 45,127.5 L45,98.5 C45,94.3578644 48.3578644,91 52.5,91 L81.5,91 Z M67,97.1395349 C58.2542752,97.1395349 51.1395349,104.254936 51.1395349,113 C51.1395349,121.745064 58.2542752,128.860465 67,128.860465 C75.7457248,128.860465 82.8604651,121.745064 82.8604651,113 C82.8604651,104.254936 75.7457248,97.1395349 67,97.1395349 Z M69.2786202,118.122269 C69.6209419,121.014822 69.4914147,123.761986 68.911186,126.063076 C68.2853585,126.154273 67.6509399,126.217054 67,126.217054 C64.2964516,126.217054 61.781907,125.398258 59.6856822,123.999233 C61.7878547,121.67237 65.2302364,119.561607 69.2786202,118.122269 Z M79.7848566,116.295012 C78.7169186,120.431289 75.7014477,123.783134 71.7706957,125.312347 C72.1909981,122.888339 72.2154496,120.151087 71.8381027,117.328585 C74.5667636,116.602308 77.3145891,116.244126 79.7848566,116.295012 Z M67.2412112,110.149742 C67.4738314,110.737901 67.6952171,111.332008 67.8921512,111.932723 C68.27875,113.106397 68.597281,114.291967 68.8444399,115.470928 C64.1715504,117.061601 60.1211841,119.544424 57.6416647,122.322649 C55.2586298,119.931023 53.7829457,116.63469 53.7829457,113 C53.7829457,112.753502 53.8067364,112.512291 53.8199535,112.269097 C54.4497461,112.319983 55.0901124,112.355008 55.7522868,112.355008 C58.6395523,112.355008 61.8004109,111.873246 64.9216182,110.941444 C65.7225717,110.700893 66.4911434,110.431266 67.2412112,110.149742 Z M76.8764438,104.247006 C78.9475562,106.581138 80.2170543,109.641547 80.2170543,113 C80.2170543,113.222047 80.1945853,113.438806 80.1840116,113.65887 C77.422969,113.559081 74.4233585,113.919907 71.3827752,114.711609 C71.1223992,113.508857 70.7972597,112.30214 70.4040523,111.10864 C70.1866318,110.443161 69.9394729,109.784952 69.6804186,109.13269 C72.5802403,107.779264 75.0663682,106.091446 76.8764438,104.247006 Z M61.4600717,101.016097 C63.2509826,102.781895 64.8621415,105.069107 66.1739341,107.728378 C65.5223333,107.969589 64.8555329,108.200227 64.1636202,108.409056 C60.7100039,109.438665 57.231936,109.870862 54.2283605,109.656085 C55.2348391,105.816531 57.9212054,102.658977 61.4600717,101.016097 Z M67,99.7829457 C69.979124,99.7829457 72.7216628,100.785459 74.9341977,102.454773 C73.3640116,104.041481 71.1851802,105.511878 68.6177674,106.71463 C67.3826337,104.179599 65.8884457,101.934021 64.2204535,100.082973 C65.1178915,99.8900039 66.0463895,99.7829457 67,99.7829457 Z" id="Combined-Shape"></path>
        </g>
    </g>
</svg>