<?xml version="1.0" encoding="UTF-8"?>
<svg width="44px" height="44px" viewBox="0 0 44 44" version="1.1" xmlns="http://www.w3.org/2000/svg" xmlns:xlink="http://www.w3.org/1999/xlink">
    <!-- Generator: Sketch 64 (93537) - https://sketch.com -->
    <title>Group</title>
    <desc>Created with Sketch.</desc>
    <g id="Page-1" stroke="none" stroke-width="1" fill="none" fill-rule="evenodd">
        <g id="Artboard" transform="translate(-45.000000, -44.000000)">
            <g id="Group" transform="translate(45.000000, 44.000000)">
                <rect id="Rectangle" stroke="#F9F9F9" x="0.5" y="0.5" width="43" height="43" rx="7.5"></rect>
                <path d="M22,6.13953488 C13.2542752,6.13953488 6.13953488,13.254936 6.13953488,22 C6.13953488,30.745064 13.2542752,37.8604651 22,37.8604651 C30.7457248,37.8604651 37.8604651,30.745064 37.8604651,22 C37.8604651,13.254936 30.7457248,6.13953488 22,6.13953488 Z M35.2170543,22 C35.2170543,22.2220465 35.1945853,22.4388062 35.1840116,22.6588702 C32.422969,22.5590814 29.4233585,22.919907 26.3827752,23.7116085 C26.1223992,22.5088566 25.7972597,21.3021395 25.4040523,20.1086395 C25.1866318,19.4431609 24.9394729,18.7849516 24.6804186,18.1326899 C27.5802403,16.7792636 30.0663682,15.0914457 31.8764438,13.2470058 C33.9475562,15.5811376 35.2170543,18.6415465 35.2170543,22 L35.2170543,22 Z M29.9341977,11.4547733 C28.3640116,13.0414806 26.1851802,14.5118779 23.6177674,15.7146298 C22.3826337,13.1795988 20.8884457,10.9340213 19.2204535,9.08297287 C20.1178915,8.89000388 21.0463895,8.78294574 22,8.78294574 C24.979124,8.78294574 27.7216628,9.7854593 29.9341977,11.4547733 L29.9341977,11.4547733 Z M16.4600717,10.0160969 C18.2509826,11.7818953 19.8621415,14.0691066 21.1739341,16.7283779 C20.5223333,16.9695891 19.8555329,17.2002267 19.1636202,17.4090562 C15.7100039,18.4386647 12.231936,18.8708624 9.22836047,18.6560853 C10.2348391,14.816531 12.9212054,11.6589767 16.4600717,10.0160969 Z M8.78294574,22 C8.78294574,21.7535019 8.80673643,21.5122907 8.81995349,21.2690969 C9.44974612,21.3199826 10.0901124,21.3550078 10.7522868,21.3550078 C13.6395523,21.3550078 16.8004109,20.8732461 19.9216182,19.9414438 C20.7225717,19.7008934 21.4911434,19.4312655 22.2412112,19.1497422 C22.4738314,19.7379012 22.6952171,20.3320078 22.8921512,20.9327229 C23.27875,22.1063973 23.597281,23.2919671 23.8444399,24.4709283 C19.1715504,26.0616008 15.1211841,28.5444244 12.6416647,31.3226492 C10.2586298,28.9310233 8.78294574,25.6346899 8.78294574,22 L8.78294574,22 Z M14.6856822,32.9992326 C16.7878547,30.6723702 20.2302364,28.5616066 24.2786202,27.1222694 C24.6209419,30.0148217 24.4914147,32.7619864 23.911186,35.0630756 C23.2853585,35.1542733 22.6509399,35.2170543 22,35.2170543 C19.2964516,35.2170543 16.781907,34.3982578 14.6856822,32.9992326 L14.6856822,32.9992326 Z M26.7706957,34.3123469 C27.1909981,31.8883391 27.2154496,29.1510872 26.8381027,26.3285853 C29.5667636,25.6023081 32.3145891,25.244126 34.7848566,25.2950116 C33.7169186,29.4312888 30.7014477,32.7831337 26.7706957,34.3123469 L26.7706957,34.3123469 Z" id="Shape" fill="#F9F9F9" fill-rule="nonzero"></path>
            </g>
        </g>
    </g>
</svg>