<?xml version="1.0" encoding="UTF-8"?>
<svg width="44px" height="44px" viewBox="0 0 44 44" version="1.1" xmlns="http://www.w3.org/2000/svg" xmlns:xlink="http://www.w3.org/1999/xlink">
    <!-- Generator: Sketch 64 (93537) - https://sketch.com -->
    <title>Group 3</title>
    <desc>Created with Sketch.</desc>
    <g id="Page-1" stroke="none" stroke-width="1" fill="none" fill-rule="evenodd">
        <g id="Artboard" transform="translate(-261.000000, -19.000000)">
            <g id="Group-3" transform="translate(261.000000, 19.000000)">
                <rect id="Mask" stroke="#F9F9F9" x="0.5" y="0.5" width="43" height="43" rx="7.5"></rect>
                <g id="Icon" transform="translate(4.000000, 4.000000)" fill="#F9F9F9" fill-rule="nonzero">
                    <g id="Icon-Group" transform="translate(3.960000, 7.200000)">
                        <path d="M26.97984,0.06804 L1.10016,0.06804 C0.592075991,0.0686354891 0.180396747,0.480475797 0.18,0.98856 L0.18,2.8404 C0.18,2.92572 0.27252,3.02364 0.34812,3.06324 L13.95108,10.83312 C13.9859242,10.8530334 14.0254284,10.8633442 14.06556,10.8630083 C14.1065804,10.8630083 14.1468733,10.8521697 14.1822,10.83132 L27.37404,3.0708 C27.4482,3.0294 27.64476,2.91996 27.71856,2.86956 C27.80784,2.80872 27.9,2.75364 27.9,2.64456 L27.9,0.9882 C27.8994049,0.48025638 27.4877836,0.0686351308 26.97984,0.06804 Z" id="Icon-Path"></path>
                        <path d="M27.78516,5.63256 C27.7130796,5.59145155 27.624525,5.59200073 27.55296,5.634 L20.08764,10.02636 C20.0273801,10.0614726 19.9863743,10.1221 19.976217,10.1910998 C19.9660597,10.2600996 19.9878549,10.3299718 20.03544,10.38096 L27.50184,18.42948 C27.5450892,18.4764703 27.6060965,18.5031202 27.66996,18.5029211 C27.7969254,18.5027218 27.8998018,18.3998454 27.9000017,18.27288 L27.9000017,5.83236 C27.9003193,5.74998499 27.8564997,5.67374719 27.78516,5.63256 L27.78516,5.63256 Z" id="Icon-Path"></path>
                        <path d="M17.93628,11.50128 C17.8632513,11.4217458 17.7445821,11.4040429 17.65152,11.4588 L14.6592,13.21956 C14.3025311,13.4256438 13.8636563,13.4285167 13.50432,13.22712 L10.87092,11.72268 C10.7836801,11.6729927 10.674309,11.6855172 10.60056,11.75364 L0.60048,21.0294 C0.547322088,21.0790944 0.520765104,21.1509808 0.528847764,21.2232994 C0.536930425,21.2956179 0.578702607,21.3598675 0.64152,21.3966 C0.79704,21.48804 0.94716,21.5316005 1.0998,21.5316005 L26.71488,21.5316005 C26.806514,21.5317851 26.8894037,21.4772338 26.92548,21.393 C26.9621978,21.3092646 26.9454895,21.2117048 26.883,21.14496 L17.93628,11.50128 Z" id="Icon-Path"></path>
                        <path d="M8.40024,10.65636 C8.45395596,10.606698 8.48084844,10.5344477 8.47267619,10.4617501 C8.46450394,10.3890526 8.42224139,10.3245763 8.35884,10.28808 L0.52308,5.81256 C0.451913607,5.77215456 0.364623737,5.77266798 0.293937563,5.81390777 C0.223251389,5.85514755 0.17984784,5.93088338 0.179996306,6.01272 L0.179996306,17.75592 C0.179481407,17.8475916 0.23360873,17.9307639 0.317636974,17.9674137 C0.401665218,18.0040635 0.499446947,17.9871479 0.56628,17.9244 L8.40024,10.65636 L8.40024,10.65636 Z" id="Icon-Path"></path>
                    </g>
                </g>
                <rect id="ViewBox" fill-rule="nonzero" x="4" y="4" width="36" height="36"></rect>
            </g>
        </g>
    </g>
</svg>