<?xml version="1.0" encoding="UTF-8"?>
<svg width="44px" height="44px" viewBox="0 0 44 44" version="1.1" xmlns="http://www.w3.org/2000/svg" xmlns:xlink="http://www.w3.org/1999/xlink">
    <!-- Generator: Sketch 64 (93537) - https://sketch.com -->
    <title>Group 2</title>
    <desc>Created with Sketch.</desc>
    <g id="Page-1" stroke="none" stroke-width="1" fill="none" fill-rule="evenodd">
        <g id="Artboard" transform="translate(-215.000000, -19.000000)">
            <g id="Group-2" transform="translate(215.000000, 19.000000)">
                <path d="M36.5,0 C40.6421356,-1.64907639e-15 44,3.35786438 44,7.5 L44,36.5 C44,40.6421356 40.6421356,44 36.5,44 L7.5,44 C3.35786438,44 -3.80913106e-16,40.6421356 0,36.5 L0,7.5 C-1.39544373e-15,3.35786438 3.35786438,-1.2728045e-16 7.5,0 L36.5,0 Z M25.61152,22.6588 L22.6192,24.41956 C22.2625311,24.6256438 21.8236563,24.6285167 21.46432,24.42712 L18.83092,22.92268 C18.7436801,22.8729927 18.634309,22.8855172 18.56056,22.95364 L8.56048,32.2294 C8.50732209,32.2790944 8.4807651,32.3509808 8.48884776,32.4232994 C8.49693042,32.4956179 8.53870261,32.5598675 8.60152,32.5966 C8.75704,32.68804 8.90716,32.7316005 9.0598,32.7316005 L34.67488,32.7316005 C34.766514,32.7317851 34.8494037,32.6772338 34.88548,32.593 C34.9221978,32.5092646 34.9054895,32.4117048 34.843,32.34496 L25.89628,22.70128 C25.8232513,22.6217458 25.7045821,22.6040429 25.61152,22.6588 Z M35.51296,16.834 L28.04764,21.22636 C27.9873801,21.2614726 27.9463743,21.3221 27.936217,21.3910998 C27.9260597,21.4600996 27.9478549,21.5299718 27.99544,21.58096 L35.46184,29.62948 C35.5050892,29.6764703 35.5660965,29.7031202 35.62996,29.7029211 C35.7569254,29.7027218 35.8598018,29.5998454 35.8600017,29.47288 L35.8600017,17.03236 C35.8603193,16.949985 35.8164997,16.8737472 35.74516,16.83256 C35.6730796,16.7914516 35.584525,16.7920007 35.51296,16.834 Z M8.25393756,17.0139078 C8.18325139,17.0551475 8.13984784,17.1308834 8.13999631,17.21272 L8.13999631,28.95592 C8.13948141,29.0475916 8.19360873,29.1307639 8.27763697,29.1674137 C8.36166522,29.2040635 8.45944695,29.1871479 8.52628,29.1244 L16.36024,21.85636 C16.413956,21.806698 16.4408484,21.7344477 16.4326762,21.6617501 C16.4245039,21.5890526 16.3822414,21.5245763 16.31884,21.48808 L8.48308,17.01256 C8.41191361,16.9721546 8.32462374,16.972668 8.25393756,17.0139078 Z M34.93984,11.26804 L9.06016,11.26804 C8.55207599,11.2686355 8.14039675,11.6804758 8.14,12.18856 L8.14,14.0404 C8.14,14.12572 8.23252,14.22364 8.30812,14.26324 L21.91108,22.03312 C21.9459242,22.0530334 21.9854284,22.0633442 22.02556,22.0630083 C22.0665804,22.0630083 22.1068733,22.0521697 22.1422,22.03132 L35.33404,14.2708 C35.4082,14.2294 35.60476,14.11996 35.67856,14.06956 C35.76784,14.00872 35.86,13.95364 35.86,13.84456 L35.86,12.1882 C35.8594049,11.6802564 35.4477836,11.2686351 34.93984,11.26804 Z" id="Combined-Shape" fill="#F26761"></path>
                <g id="foundation-mail" transform="translate(4.000000, 4.000000)">
                    <g id="Icon" transform="translate(3.000000, 7.000000)">
                        <g id="Icon-Group" transform="translate(0.960000, 0.200000)"></g>
                    </g>
                    <rect id="ViewBox" fill-rule="nonzero" x="0" y="0" width="36" height="36"></rect>
                </g>
            </g>
        </g>
    </g>
</svg>