<?xml version="1.0" encoding="UTF-8"?>
<svg width="217px" height="43px" viewBox="0 0 217 43" version="1.1" xmlns="http://www.w3.org/2000/svg" xmlns:xlink="http://www.w3.org/1999/xlink">
    <!-- Generator: Sketch 64 (93537) - https://sketch.com -->
    <title>see</title>
    <desc>Created with Sketch.</desc>
    <g id="Page-1" stroke="none" stroke-width="1" fill="none" fill-rule="evenodd">
        <g id="Artboard" transform="translate(-65.000000, -191.000000)">
            <g id="see" transform="translate(65.707547, 191.000000)">
                <path d="M208.792453,0 C212.934589,-7.6089797e-16 216.292453,3.35786438 216.292453,7.5 L216.292453,35.5 C216.292453,39.6421356 212.934589,43 208.792453,43 L24.7924532,43 C20.6503176,43 17.2924532,39.6421356 17.2924532,35.5 L17.292,32 L1.65901638,24.1832816 C0.177080891,23.4423138 -0.423592149,21.6402947 0.317375597,20.1583592 C0.6076667,19.577777 1.07843418,19.1070095 1.65901638,18.8167184 L17.292,11 L17.2924532,7.5 C17.2924532,3.35786438 20.6503176,-1.01545887e-15 24.7924532,0 L208.792453,0 Z" id="Combined-Shape" fill="#F26761"></path>
                <text id="See-Case-Study" font-family="Rubik-Bold, Rubik" font-size="22" font-weight="bold" fill="#000000">
                    <tspan x="31.2924532" y="29">See Case Study</tspan>
                </text>
            </g>
        </g>
    </g>
</svg>